STARTFONT 2.1
COMMENT "$XConsortium: sys23.bdf /main/2 1996/10/29 18:23:23 drk $"
COMMENT "Hand-pixeled glyphs created with modified X Font Editor (Xfed)"
FONT -HP-HP System-Medium-R-Normal-Sans-18-180-72-72-P-114-ISO8859-1
SIZE 18 72 72 
FONTBOUNDINGBOX 18 23 0 -5
STARTPROPERTIES 25
COMMENT "Begin X Logical Font Description (XLFD) Version 1.5"
COPYRIGHT "(c) Copyright 1994, Hewlett Packard Company"
NOTICE "Created by the User Interaction Design Group, July 1994."
NOTICE "Hewlett Packard Company, 3000 Hanover St., Palo Alto, CA 94303, USA"
FONTNAME_REGISTRY ""
FOUNDRY "HP"
FAMILY_NAME "HP System"
WEIGHT_NAME "Medium"
SLANT "R"
ADD_STYLE_NAME "Sans"
SETWIDTH_NAME "Normal"
PIXEL_SIZE 18
POINT_SIZE 180
RESOLUTION_X 72
RESOLUTION_Y 72
SPACING "P"
AVERAGE_WIDTH 114
CHARSET_REGISTRY "ISO8859"
CHARSET_ENCODING "1"
COMMENT "End X Logical Font Description (XLFD)"
CHARSET_COLLECTIONS "ISO8859-1"
FULL_NAME "HP System23"
CAP_HEIGHT 14
X_HEIGHT 9
FONT_ASCENT 18
FONT_DESCENT 5
DEFAULT_CHAR 32
COMMENT "End of Font Properties"
ENDPROPERTIES
CHARS 191
STARTCHAR PrintableSpace
ENCODING 32
SWIDTH 333 0
DWIDTH 6 0
BBX 1 23 0 -5
BITMAP
0000
0000
0000
0000
0000
0000
0000
0000
0000
0000
0000
0000
0000
0000
0000
0000
0000
00
0000
0000
0000
0000
0000
ENDCHAR
STARTCHAR Exclamation
ENCODING 33
SWIDTH 444 0
DWIDTH 8 0
BBX 2 23 3 -5
BITMAP
0000
0000
0000
C0
C0
C0
C0
C0
C0
C0
C0
C0
C0
C0
00
00
C0
C0
C0
0000
0000
0000
0000
ENDCHAR
STARTCHAR NeutrlDblQuote
ENCODING 34
SWIDTH 444 0
DWIDTH 8 0
BBX 6 23 1 -5
BITMAP
0000
0000
0000
CC
CC
CC
CC
CC
CC
0000
0000
0000
0000
0000
0000
0000
0000
0000
0000
0000
0000
0000
0000
ENDCHAR
STARTCHAR NumberSign
ENCODING 35
SWIDTH 833 0
DWIDTH 15 0
BBX 13 23 1 -5
BITMAP
0000
0000
0000
0420
0c60
0c60
0c60
0c60
7ff8
18c0
18c0
18c0
18c0
fff0
3180
3180
3180
3180
2100
0000
0000
0000
0000
ENDCHAR
STARTCHAR DollarSign
ENCODING 36
SWIDTH 666 0
DWIDTH 12 0
BBX 10 23 1 -5
BITMAP
0000
0800
0800
0800
3F00
6B80
C980
C800
E800
7800
1E00
0F80
0980
08C0
08C0
C8C0
E980
7F00
0800
0800
0800
0000
0000
ENDCHAR
STARTCHAR PerCentSign
ENCODING 37
SWIDTH 944 0
DWIDTH 17 0
BBX 15 23 1 -5
BITMAP
0000
0000
0000
383000
6c3000
c66000
C66000
C6c000
6cc000
398000
018000
030000
033800
066c00
06c600
0cc600
0cc600
186c00
183800
0000
0000
0000
0000
ENDCHAR
STARTCHAR Ampersand
ENCODING 38
SWIDTH 722 0
DWIDTH 13 0
BBX 11 23 1 -5
BITMAP
0000
0000
0000
1e00
3300
6000
6000
6000
6100
3180
3fe0
6180
c180
c180
c180
c180
c180
61c0
3f00
0000
0000
0000
0000
ENDCHAR
STARTCHAR SingleCloseQut
ENCODING 39
SWIDTH 333 0
DWIDTH 6 0
BBX 4 23 1 -5
BITMAP
0000
0000
0000
30
30
30
60
C0
80
0000
0000
0000
0000
0000
0000
0000
0000
0000
0000
0000
0000
0000
0000
ENDCHAR
STARTCHAR OpenParen
ENCODING 40
SWIDTH 388 0
DWIDTH 7 0
BBX 5 23 2 -5
BITMAP
0000
0000
18
30
60
60
C0
C0
C0
C0
C0
C0
C0
C0
C0
C0
60
60
30
18
00
00
0000
ENDCHAR
STARTCHAR CloseParen
ENCODING 41
SWIDTH 388 0
DWIDTH 7 0
BBX 5 23 0 -5
BITMAP
0000
0000
C0
60
30
30
18
18
18
18
18
18
18
18
18
18
30
30
60
c0
00
00
0000
ENDCHAR
STARTCHAR Asterisk
ENCODING 42
SWIDTH 888 0
DWIDTH 16 0
BBX 12 23 2 -5
BITMAP
0000
0000
0000
0000
0000
0600
4620
E670
76E0
3FC0
1F80
1F80
3FC0
76E0
E670
4620
0600
0000
0000
0000
0000
0000
0000
ENDCHAR
STARTCHAR PlusSign
ENCODING 43
SWIDTH 888 0
DWIDTH 16 0
BBX 12 23 2 -5
BITMAP
0000
0000
0000
0000
0000
0600
0600
0600
0600
0600
FFF0
FFF0
0600
0600
0600
0600
0600
0000
0000
0000
0000
0000
0000
ENDCHAR
STARTCHAR Comma
ENCODING 44
SWIDTH 333 0
DWIDTH 6 0
BBX 4 23 1 -5
BITMAP
0000
0000
0000
0000
0000
0000
0000
0000
0000
0000
0000
0000
0000
0000
0000
30
30
30
60
C0
80
0000
0000
ENDCHAR
STARTCHAR Hyphen
ENCODING 45
SWIDTH 888 0
DWIDTH 16 0
BBX 12 23 2 -5
BITMAP
0000
0000
0000
0000
0000
0000
0000
0000
0000
0000
FFF0
FFF0
0000
0000
0000
0000
0000
0000
0000
0000
0000
0000
0000
ENDCHAR
STARTCHAR Period
ENCODING 46
SWIDTH 333 0
DWIDTH 6 0
BBX 2 23 2 -5
BITMAP
0000
0000
0000
0000
0000
0000
0000
0000
0000
0000
0000
0000
0000
0000
0000
C0
C0
C0
0000
0000
0000
0000
0000
ENDCHAR
STARTCHAR Slash
ENCODING 47
SWIDTH 611 0
DWIDTH 11 0
BBX 10 23 1 -5
BITMAP
0000
0000
00C0
00C0
0180
0180
0300
0300
0600
0600
0C00
0C00
1800
1800
3000
3000
6000
6000
C000
C000
0000
0000
0000
ENDCHAR
STARTCHAR Zero
ENCODING 48
SWIDTH 666 0
DWIDTH 12 0
BBX 10 23 1 -5
BITMAP
0000
0000
0000
0000
1E00
7380
6180
C0C0
C0C0
C0C0
C0C0
C0C0
C0C0
C0C0
C0C0
6180
7380
1E00
0000
0000
0000
0000
0000
ENDCHAR
STARTCHAR One
ENCODING 49
SWIDTH 666 0
DWIDTH 12 0
BBX 6 23 3 -5
BITMAP
0000
0000
0000
0000
0c
1c
3c
6c
cc
0c
0c
0c
0c
0c
0c
0c
0c
0c
0000
0000
0000
0000
0000
ENDCHAR
STARTCHAR Two
ENCODING 50
SWIDTH 666 0
DWIDTH 12 0
BBX 10 23 1 -5
BITMAP
0000
0000
0000
0000
1E00
7380
C0C0
C0C0
00C0
00C0
0180
0300
0E00
1800
3000
6000
C000
FFC0
0000
0000
0000
0000
0000
ENDCHAR
STARTCHAR Three
ENCODING 51
SWIDTH 666 0
DWIDTH 12 0
BBX 10 23 1 -5
BITMAP
0000
0000
0000
0000
1E00
7380
C0C0
C0C0
00C0
0180
0F00
0180
00C0
00C0
C0C0
C0C0
7380
1E00
0000
0000
0000
0000
0000
ENDCHAR
STARTCHAR Four
ENCODING 52
SWIDTH 666 0
DWIDTH 12 0
BBX 11 23 1 -5
BITMAP
0000
0000
0000
0000
0380
0780
0D80
0D80
1980
3180
3180
6180
C180
FFE0
0180
0180
0180
0180
0000
0000
0000
0000
0000
ENDCHAR
STARTCHAR Five
ENCODING 53
SWIDTH 666 0
DWIDTH 12 0
BBX 10 23 1 -5
BITMAP
0000
0000
0000
0000
ff80
c000
c000
c000
c000
fe00
e380
0180
00c0
00c0
00c0
c180
6380
3e00
0000
0000
0000
0000
0000
ENDCHAR
STARTCHAR Six
ENCODING 54
SWIDTH 666 0
DWIDTH 12 0
BBX 10 23 1 -5
BITMAP
0000
0000
0000
0000
1E00
7380
6180
C000
C000
DE00
F380
E180
C0C0
C0C0
C0C0
6180
7380
1E00
0000
0000
0000
0000
0000
ENDCHAR
STARTCHAR Seven
ENCODING 55
SWIDTH 666 0
DWIDTH 12 0
BBX 9 23 2 -5
BITMAP
0000
0000
0000
0000
FF80
0180
0300
0300
0600
0600
0C00
0C00
1800
1800
1800
3000
3000
3000
0000
0000
0000
0000
0000
ENDCHAR
STARTCHAR Eight
ENCODING 56
SWIDTH 666 0
DWIDTH 12 0
BBX 10 23 1 -5
BITMAP
0000
0000
0000
0000
1E00
3300
6180
6180
6180
3300
1E00
7380
6180
C0C0
C0C0
6180
7380
1E00
0000
0000
0000
0000
0000
ENDCHAR
STARTCHAR Nine
ENCODING 57
SWIDTH 666 0
DWIDTH 12 0
BBX 10 23 1 -5
BITMAP
0000
0000
0000
0000
1E00
7380
6180
C0C0
C0C0
C0C0
61C0
73C0
1EC0
00C0
00C0
6180
7380
1E00
0000
0000
0000
0000
0000
ENDCHAR
STARTCHAR Colon
ENCODING 58
SWIDTH 333 0
DWIDTH 6 0
BBX 2 23 2 -5
BITMAP
0000
0000
0000
0000
0000
0000
0000
0000
0000
C0
C0
C0
00
00
00
C0
C0
C0
0000
0000
0000
0000
0000
ENDCHAR
STARTCHAR Simicolon
ENCODING 59
SWIDTH 388 0
DWIDTH 7 0
BBX 4 23 1 -5
BITMAP
0000
0000
0000
0000
0000
0000
0000
0000
0000
30
30
30
00
00
00
30
30
30
60
C0
80
0000
0000
ENDCHAR
STARTCHAR LessThanSign
ENCODING 60
SWIDTH 888 0
DWIDTH 16 0
BBX 12 23 2 -5
BITMAP
0000
0000
0000
0000
0000
0030
00F0
03C0
0F00
3C00
F000
F000
3C00
0F00
03C0
00F0
0030
0000
0000
0000
0000
0000
0000
ENDCHAR
STARTCHAR EqualsSign
ENCODING 61
SWIDTH 888 0
DWIDTH 16 0
BBX 12 23 2 -5
BITMAP
0000
0000
0000
0000
0000
0000
0000
0000
FFF0
FFF0
0000
0000
FFF0
FFF0
0000
0000
0000
0000
0000
0000
0000
0000
0000
ENDCHAR
STARTCHAR GreatrThanSign
ENCODING 62
SWIDTH 888 0
DWIDTH 16 0
BBX 12 23 2 -5
BITMAP
0000
0000
0000
0000
0000
C000
F000
3C00
0F00
03C0
00F0
00F0
03C0
0F00
3C00
F000
C000
0000
0000
0000
0000
0000
0000
ENDCHAR
STARTCHAR QuestionMark
ENCODING 63
SWIDTH 500 0
DWIDTH 9 0
BBX 7 23 1 -5
BITMAP
0000
0000
0000
7C
C6
C6
06
06
0e
1C
38
30
30
30
00
00
30
30
30
0000
0000
0000
0000
ENDCHAR
STARTCHAR CommerclAtSign
ENCODING 64
SWIDTH 833 0
DWIDTH 15 0
BBX 13 23 1 -5
BITMAP
0000
0000
0000
0FC0
3860
6030
6030
C3f0
C670
CC30
CC30
CC30
CC30
C670
C3D8
6000
6000
3860
0FC0
0000
0000
0000
0000
ENDCHAR
STARTCHAR A
ENCODING 65
SWIDTH 777 0
DWIDTH 14 0
BBX 12 23 1 -5
BITMAP
0000
0000
0000
0000
0600
0600
0F00
0F00
1980
1980
1980
30C0
30C0
7FE0
6060
6060
C030
C030
0000
0000
0000
0000
0000
ENDCHAR
STARTCHAR B
ENCODING 66
SWIDTH 666 0
DWIDTH 12 0
BBX 10 23 1 -5
BITMAP
0000
0000
0000
0000
FE00
C300
C180
C180
C180
C300
FF00
C180
C0C0
C0C0
C0C0
C0C0
C180
FF00
0000
0000
0000
0000
0000
ENDCHAR
STARTCHAR C
ENCODING 67
SWIDTH 777 0
DWIDTH 14 0
BBX 12 23 1 -5
BITMAP
0000
0000
0000
0000
0F80
38E0
6030
6030
C000
C000
C000
C000
C000
C000
6030
6030
38E0
0F80
0000
0000
0000
0000
0000
ENDCHAR
STARTCHAR D
ENCODING 68
SWIDTH 722 0
DWIDTH 13 0
BBX 11 23 1 -5
BITMAP
0000
0000
0000
0000
FE00
C380
C0C0
C0C0
C060
C060
C060
C060
C060
C060
C0C0
C0C0
C380
FE00
0000
0000
0000
0000
0000
ENDCHAR
STARTCHAR E
ENCODING 69
SWIDTH 611 0
DWIDTH 11 0
BBX 9 23 1 -5
BITMAP
0000
0000
0000
0000
FF80
C000
C000
C000
C000
C000
FF80
C000
C000
C000
C000
C000
C000
FF80
0000
0000
0000
0000
0000
ENDCHAR
STARTCHAR F
ENCODING 70
SWIDTH 611 0
DWIDTH 11 0
BBX 9 23 1 -5
BITMAP
0000
0000
0000
0000
FF80
C000
C000
C000
C000
C000
FF80
C000
C000
C000
C000
C000
C000
C000
0000
0000
0000
0000
0000
ENDCHAR
STARTCHAR G
ENCODING 71
SWIDTH 777 0
DWIDTH 14 0
BBX 12 23 1 -5
BITMAP
0000
0000
0000
0000
0F80
38E0
6030
6030
C000
C000
C000
C3F0
C030
C030
6030
6030
38E0
0F80
0000
0000
0000
0000
0000
ENDCHAR
STARTCHAR H
ENCODING 72
SWIDTH 722 0
DWIDTH 13 0
BBX 11 23 1 -5
BITMAP
0000
0000
0000
0000
C060
C060
C060
C060
C060
C060
FFE0
C060
C060
C060
C060
C060
C060
C060
0000
0000
0000
0000
0000
ENDCHAR
STARTCHAR I
ENCODING 73
SWIDTH 333 0
DWIDTH 6 0
BBX 2 23 2 -5
BITMAP
0000
0000
0000
0000
C0
C0
C0
C0
C0
C0
C0
C0
C0
C0
C0
C0
C0
C0
0000
0000
0000
0000
0000
ENDCHAR
STARTCHAR J
ENCODING 74
SWIDTH 555 0
DWIDTH 10 0
BBX 8 23 1 -5
BITMAP
0000
0000
0000
0000
0300
0300
0300
0300
0300
0300
0300
0300
0300
0300
C300
C300
6600
3c00
0000
0000
0000
0000
0000
ENDCHAR
STARTCHAR K
ENCODING 75
SWIDTH 722 0
DWIDTH 13 0
BBX 11 23 1 -5
BITMAP
0000
0000
0000
0000
C0C0
C180
C300
C600
CC00
D800
F000
F800
DC00
CE00
C700
C380
C1C0
C0E0
0000
0000
0000
0000
0000
ENDCHAR
STARTCHAR L
ENCODING 76
SWIDTH 611 0
DWIDTH 11 0
BBX 9 23 1 -5
BITMAP
0000
0000
0000
0000
C000
C000
C000
C000
C000
C000
C000
C000
C000
C000
C000
C000
C000
FF80
0000
0000
0000
0000
0000
ENDCHAR
STARTCHAR M
ENCODING 77
SWIDTH 833 0
DWIDTH 15 0
BBX 13 23 1 -5
BITMAP
0000
0000
0000
0000
c018
c018
e038
e038
f078
f078
d8d8
d8d8
cd98
cf98
c718
c718
c218
c018
0000
0000
0000
0000
0000
ENDCHAR
STARTCHAR N
ENCODING 78
SWIDTH 722 0
DWIDTH 13 0
BBX 11 23 1 -5
BITMAP
0000
0000
0000
0000
C060
E060
E060
F060
d860
D860
CC60
C660
C660
C360
C1E0
C1E0
C0E0
C060
0000
0000
0000
0000
0000
ENDCHAR
STARTCHAR O
ENCODING 79
SWIDTH 833 0
DWIDTH 15 0
BBX 13 23 1 -5
BITMAP
0000
0000
0000
0000
0F80
38E0
6030
6030
C018
C018
C018
C018
C018
C018
6030
6030
38E0
0F80
0000
0000
0000
0000
0000
ENDCHAR
STARTCHAR P
ENCODING 80
SWIDTH 611 0
DWIDTH 11 0
BBX 9 23 1 -5
BITMAP
0000
0000
0000
0000
fe00
c300
c180
c180
c180
c180
c300
fe00
c000
c000
c000
c000
c000
c000
0000
0000
0000
0000
0000
ENDCHAR
STARTCHAR Q
ENCODING 81
SWIDTH 833 0
DWIDTH 15 0
BBX 13 23 1 -5
BITMAP
0000
0000
0000
0000
0F80
38E0
6030
6030
C018
C018
C018
C018
C018
C318
61B0
60F0
38E0
0FB0
0018
0000
0000
0000
0000
ENDCHAR
STARTCHAR R
ENCODING 82
SWIDTH 611 0
DWIDTH 11 0
BBX 9 23 1 -5
BITMAP
0000
0000
0000
0000
fe00
c300
c180
c180
c180
c180
c300
fe00
c600
c300
c300
c180
c180
c180
0000
0000
0000
0000
0000
ENDCHAR
STARTCHAR S
ENCODING 83
SWIDTH 722 0
DWIDTH 13 0
BBX 11 23 1 -5
BITMAP
0000
0000
0000
0000
1E00
7380
C1C0
C0C0
E000
7800
1E00
0780
01C0
00E0
C060
E060
71C0
1F00
0000
0000
0000
0000
0000
ENDCHAR
STARTCHAR T
ENCODING 84
SWIDTH 666 0
DWIDTH 12 0
BBX 12 23 0 -5
BITMAP
0000
0000
0000
0000
FFF0
0600
0600
0600
0600
0600
0600
0600
0600
0600
0600
0600
0600
0600
0000
0000
0000
0000
0000
ENDCHAR
STARTCHAR U
ENCODING 85
SWIDTH 722 0
DWIDTH 13 0
BBX 11 23 1 -5
BITMAP
0000
0000
0000
0000
C060
C060
C060
C060
C060
C060
C060
C060
C060
C060
C060
60C0
71C0
1F00
0000
0000
0000
0000
0000
ENDCHAR
STARTCHAR V
ENCODING 86
SWIDTH 777 0
DWIDTH 14 0
BBX 12 23 1 -5
BITMAP
0000
0000
0000
0000
C030
C030
6060
6060
6060
30C0
30C0
1980
1980
1980
0F00
0F00
0600
0600
0000
0000
0000
0000
0000
ENDCHAR
STARTCHAR W
ENCODING 87
SWIDTH 1055 0
DWIDTH 19 0
BBX 17 23 1 -5
BITMAP
0000
0000
0000
0000
c00180
c08180
c08180
61c300
61c300
614300
336600
336600
322600
1e3c00
1e3c00
1c1c00
0c1800
0c1800
0000
0000
0000
0000
0000
ENDCHAR
STARTCHAR X
ENCODING 88
SWIDTH 833 0
DWIDTH 15 0
BBX 15 23 0 -5
BITMAP
0000
0000
0000
0000
E00E
701C
3838
1C70
0EE0
07C0
0380
0380
07C0
0EE0
1C70
3838
701C
E00E
0000
0000
0000
0000
0000
ENDCHAR
STARTCHAR Y
ENCODING 89
SWIDTH 777 0
DWIDTH 14 0
BBX 12 23 1 -5
BITMAP
0000
0000
0000
0000
C030
c030
6060
30c0
39C0
1f80
0F00
0600
0600
0600
0600
0600
0600
0600
0000
0000
0000
0000
0000
ENDCHAR
STARTCHAR Z
ENCODING 90
SWIDTH 666 0
DWIDTH 12 0
BBX 10 23 1 -5
BITMAP
0000
0000
0000
0000
FFC0
0180
0380
0300
0700
0600
0E00
1C00
1800
3800
3000
7000
6000
FFC0
0000
0000
0000
0000
0000
ENDCHAR
STARTCHAR OpenBracket
ENCODING 91
SWIDTH 388 0
DWIDTH 7 0
BBX 4 23 2 -5
BITMAP
0000
00
f0
C0
C0
C0
C0
C0
C0
C0
C0
C0
C0
C0
C0
C0
C0
C0
C0
f0
00
0000
0000
ENDCHAR
STARTCHAR BackSlash
ENCODING 92
SWIDTH 611 0
DWIDTH 11 0
BBX 10 23 1 -5
BITMAP
0000
0000
c000
c000
6000
6000
3000
3000
1800
1800
0c00
0c00
0600
0600
0300
0300
0180
0180
00c0
00c0
0000
0000
0000
ENDCHAR
STARTCHAR CloseBracket
ENCODING 93
SWIDTH 388 0
DWIDTH 7 0
BBX 4 23 1 -5
BITMAP
0000
00
f0
30
30
30
30
30
30
30
30
30
30
30
30
30
30
30
30
f0
00
0000
0000
ENDCHAR
STARTCHAR Circumflex
ENCODING 94
SWIDTH 666 0
DWIDTH 12 0
BBX 8 23 2 -5
BITMAP
0000
0000
0000
0000
1800
3c00
6600
c300
0000
0000
0000
0000
0000
0000
0000
0000
0000
0000
0000
0000
0000
0000
0000
ENDCHAR
STARTCHAR Underscore
ENCODING 95
SWIDTH 555 0
DWIDTH 10 0
BBX 10 23 0 -5
BITMAP
0000
0000
0000
0000
0000
0000
0000
0000
0000
0000
0000
0000
0000
0000
0000
0000
0000
0000
FFc0
0000
0000
0000
0000
ENDCHAR
STARTCHAR SingleOpenQuot
ENCODING 96
SWIDTH 333 0
DWIDTH 6 0
BBX 4 23 1 -5
BITMAP
0000
0000
0000
10
30
60
C0
C0
C0
0000
0000
0000
0000
0000
0000
0000
0000
0000
0000
0000
0000
0000
0000
ENDCHAR
STARTCHAR a
ENCODING 97
SWIDTH 611 0
DWIDTH 11 0
BBX 9 23 1 -5
BITMAP
0000
0000
0000
0000
0000
0000
0000
0000
0000
3F00
6180
6180
0180
7F80
C180
C180
C380
7D80
0000
0000
0000
0000
0000
ENDCHAR
STARTCHAR b
ENCODING 98
SWIDTH 611 0
DWIDTH 11 0
BBX 9 23 1 -5
BITMAP
0000
0000
0000
0000
C000
C000
C000
C000
C000
DE00
E300
C180
C180
C180
C180
C180
E300
DE00
0000
0000
0000
0000
0000
ENDCHAR
STARTCHAR c
ENCODING 99
SWIDTH 555 0
DWIDTH 10 0
BBX 8 23 1 -5
BITMAP
0000
0000
0000
0000
0000
0000
0000
0000
0000
3E
63
C1
C0
C0
C0
C1
63
3E
0000
0000
0000
0000
0000
ENDCHAR
STARTCHAR d
ENCODING 100
SWIDTH 611 0
DWIDTH 11 0
BBX 9 23 1 -5
BITMAP
0000
0000
0000
0000
0180
0180
0180
0180
0180
3D80
6380
C180
C180
C180
C180
C180
6380
3D80
0000
0000
0000
0000
0000
ENDCHAR
STARTCHAR e
ENCODING 101
SWIDTH 611 0
DWIDTH 11 0
BBX 9 23 1 -5
BITMAP
0000
0000
0000
0000
0000
0000
0000
0000
0000
3E00
6300
C180
C180
FF80
C000
C000
6180
3F00
0000
0000
0000
0000
0000
ENDCHAR
STARTCHAR f
ENCODING 102
SWIDTH 388 0
DWIDTH 7 0
BBX 7 23 0 -5
BITMAP
0000
0000
0000
0000
1E
30
30
30
30
FE
30
30
30
30
30
30
30
30
0000
0000
0000
0000
0000
ENDCHAR
STARTCHAR g
ENCODING 103
SWIDTH 611 0
DWIDTH 11 0
BBX 9 23 1 -5
BITMAP
0000
0000
0000
0000
0000
0000
0000
0000
0000
3D80
6380
C180
C180
C180
C180
C180
6380
3D80
0180
0180
6300
3E00
0000
ENDCHAR
STARTCHAR h
ENCODING 104
SWIDTH 555 0
DWIDTH 10 0
BBX 8 23 1 -5
BITMAP
0000
0000
0000
0000
C0
C0
C0
C0
C0
DE
E3
C3
C3
C3
C3
C3
C3
C3
0000
0000
0000
0000
0000
ENDCHAR
STARTCHAR i
ENCODING 105
SWIDTH 333 0
DWIDTH 6 0
BBX 2 23 2 -5
BITMAP
0000
0000
0000
0000
C0
C0
00
00
00
C0
C0
C0
C0
C0
C0
C0
C0
C0
0000
0000
0000
0000
0000
ENDCHAR
STARTCHAR j
ENCODING 106
SWIDTH 333 0
DWIDTH 6 0
BBX 4 23 0 -5
BITMAP
0000
0000
0000
0000
30
30
00
00
00
30
30
30
30
30
30
30
30
30
30
30
30
E0
0000
ENDCHAR
STARTCHAR k
ENCODING 107
SWIDTH 555 0
DWIDTH 10 0
BBX 8 23 1 -5
BITMAP
0000
0000
0000
0000
C0
C0
C0
C0
C0
C3
C6
CC
D8
F0
D8
CC
C6
C3
0000
0000
0000
0000
0000
ENDCHAR
STARTCHAR l
ENCODING 108
SWIDTH 333 0
DWIDTH 6 0
BBX 2 23 2 -5
BITMAP
0000
0000
0000
0000
C0
C0
C0
C0
C0
C0
C0
C0
C0
C0
C0
C0
C0
C0
0000
0000
0000
0000
0000
ENDCHAR
STARTCHAR m
ENCODING 109
SWIDTH 777 0
DWIDTH 14 0
BBX 12 23 1 -5
BITMAP
0000
0000
0000
0000
0000
0000
0000
0000
0000
DCE0
E730
C630
C630
C630
C630
C630
C630
C630
0000
0000
0000
0000
0000
ENDCHAR
STARTCHAR n
ENCODING 110
SWIDTH 555 0
DWIDTH 10 0
BBX 8 23 1 -5
BITMAP
0000
0000
0000
0000
0000
0000
0000
0000
0000
DE
E3
C3
C3
C3
C3
C3
C3
C3
0000
0000
0000
0000
0000
ENDCHAR
STARTCHAR o
ENCODING 111
SWIDTH 611 0
DWIDTH 11 0
BBX 9 23 1 -5
BITMAP
0000
0000
0000
0000
0000
0000
0000
0000
0000
3E00
6300
C180
C180
C180
C180
C180
6300
3E00
0000
0000
0000
0000
0000
ENDCHAR
STARTCHAR p
ENCODING 112
SWIDTH 611 0
DWIDTH 11 0
BBX 9 23 1 -5
BITMAP
0000
0000
0000
0000
0000
0000
0000
0000
0000
DE00
E300
C180
C180
C180
C180
C180
E300
DE00
C000
C000
C000
C000
0000
ENDCHAR
STARTCHAR q
ENCODING 113
SWIDTH 611 0
DWIDTH 11 0
BBX 9 23 1 -5
BITMAP
0000
0000
0000
0000
0000
0000
0000
0000
0000
3D80
6380
C180
C180
C180
C180
C180
6380
3D80
0180
0180
0180
0180
0000
ENDCHAR
STARTCHAR r
ENCODING 114
SWIDTH 444 0
DWIDTH 8 0
BBX 6 23 1 -5
BITMAP
0000
0000
0000
0000
0000
0000
0000
0000
0000
DC
E0
C0
C0
C0
C0
C0
C0
C0
0000
0000
0000
0000
0000
ENDCHAR
STARTCHAR s
ENCODING 115
SWIDTH 555 0
DWIDTH 10 0
BBX 8 23 1 -5
BITMAP
0000
0000
0000
0000
0000
0000
0000
0000
0000
7E
C3
C3
F0
3C
0F
C3
C3
7E
0000
0000
0000
0000
0000
ENDCHAR
STARTCHAR t
ENCODING 116
SWIDTH 388 0
DWIDTH 7 0
BBX 7 23 0 -5
BITMAP
0000
0000
0000
0000
0000
0000
10
30
30
FE
30
30
30
30
30
30
30
1E
0000
0000
0000
0000
0000
ENDCHAR
STARTCHAR u
ENCODING 117
SWIDTH 555 0
DWIDTH 10 0
BBX 8 23 1 -5
BITMAP
0000
0000
0000
0000
0000
0000
0000
0000
0000
C3
C3
C3
C3
C3
C3
C3
C7
7B
0000
0000
0000
0000
0000
ENDCHAR
STARTCHAR v
ENCODING 118
SWIDTH 611 0
DWIDTH 11 0
BBX 9 23 1 -5
BITMAP
0000
0000
0000
0000
0000
0000
0000
0000
0000
C180
C180
6300
6300
3600
3600
1c00
1C00
0800
0000
0000
0000
0000
0000
ENDCHAR
STARTCHAR w
ENCODING 119
SWIDTH 777 0
DWIDTH 14 0
BBX 12 23 1 -5
BITMAP
0000
0000
0000
0000
0000
0000
0000
0000
0000
C630
C630
C630
6F60
6F60
6960
39C0
30C0
30C0
0000
0000
0000
0000
0000
ENDCHAR
STARTCHAR x
ENCODING 120
SWIDTH 555 0
DWIDTH 10 0
BBX 10 23 0 -5
BITMAP
0000
0000
0000
0000
0000
0000
0000
0000
0000
C0C0
6180
3300
1E00
0C00
1E00
3300
6180
C0C0
0000
0000
0000
0000
0000
ENDCHAR
STARTCHAR y
ENCODING 121
SWIDTH 611 0
DWIDTH 11 0
BBX 9 23 1 -5
BITMAP
0000
0000
0000
0000
0000
0000
0000
0000
0000
C180
C180
6300
6300
3600
3600
1C00
1C00
1800
1800
3000
7000
6000
0000
ENDCHAR
STARTCHAR z
ENCODING 122
SWIDTH 555 0
DWIDTH 10 0
BBX 8 23 1 -5
BITMAP
0000
0000
0000
0000
0000
0000
0000
0000
0000
FF
03
06
0C
18
30
60
C0
FF
0000
0000
0000
0000
0000
ENDCHAR
STARTCHAR OpenBrace
ENCODING 123
SWIDTH 555 0
DWIDTH 10 0
BBX 8 23 1 -5
BITMAP
0000
00
07
0c
18
18
18
18
18
30
e0
30
18
18
18
18
18
18
0c
07
00
0000
0000
ENDCHAR
STARTCHAR LongVertMark
ENCODING 124
SWIDTH 333 0
DWIDTH 6 0
BBX 2 23 2 -5
BITMAP
0000
0000
0000
C0
C0
C0
C0
C0
C0
C0
00
00
C0
C0
C0
C0
C0
C0
C0
0000
0000
0000
0000
ENDCHAR
STARTCHAR CloseBrace
ENCODING 125
SWIDTH 555 0
DWIDTH 10 0
BBX 8 23 1 -5
BITMAP
0000
00
e0
30
18
18
18
18
18
0C
07
0C
18
18
18
18
18
18
30
e0
00
0000
0000
ENDCHAR
STARTCHAR OneWavyLine
ENCODING 126
SWIDTH 722 0
DWIDTH 13 0
BBX 11 23 1 -5
BITMAP
0000
0000
0000
0000
0000
0000
0000
0000
0000
7820
fe60
Cfe0
83c0
0000
0000
0000
0000
0000
0000
0000
0000
0000
0000
ENDCHAR
STARTCHAR MediumShading
ENCODING 127
SWIDTH 888 0
DWIDTH 16 0
BBX 16 23 0 -5
BITMAP
aaaa00
555500
aaaa00
555500
aaaa00
555500
aaaa00
555500
aaaa00
555500
aaaa00
555500
aaaa00
555500
aaaa00
555500
aaaa00
555500
aaaa00
555500
aaaa00
555500
aaaa00
ENDCHAR
STARTCHAR InvExclamation
ENCODING 161
SWIDTH 444 0
DWIDTH 8 0
BBX 2 23 3 -5
BITMAP
0000
0000
0000
0000
C0
C0
C0
00
00
C0
C0
C0
C0
C0
C0
C0
C0
C0
C0
C0
0000
0000
0000
ENDCHAR
STARTCHAR CentSign
ENCODING 162
SWIDTH 666 0
DWIDTH 12 0
BBX 8 23 2 -5
BITMAP
0000
0000
0000
0000
01
03
02
3E
67
C5
CC
C8
D8
D1
73
3E
20
60
40
0000
0000
0000
0000
ENDCHAR
STARTCHAR SterlingSign
ENCODING 163
SWIDTH 666 0
DWIDTH 12 0
BBX 10 23 1 -5
BITMAP
0000
0000
0000
0000
0F80
19C0
30C0
3000
3000
3000
FE00
3000
3000
FE00
3000
3000
3000
FFC0
0000
0000
0000
0000
0000
ENDCHAR
STARTCHAR CurrencySymbol
ENCODING 164
SWIDTH 722 0
DWIDTH 13 0
BBX 11 23 1 -5
BITMAP
0000
0000
0000
0000
4040
EEE0
7FC0
3180
60C0
60C0
60C0
3180
7FC0
EEE0
4040
0000
0000
0000
0000
0000
0000
0000
0000
ENDCHAR
STARTCHAR Yensign
ENCODING 165
SWIDTH 666 0
DWIDTH 12 0
BBX 10 23 1 -5
BITMAP
0000
0000
0000
0000
C0C0
C0C0
6180
6180
3300
F3C0
1E00
1E00
FFC0
0C00
0C00
0C00
0C00
0C00
0000
0000
0000
0000
0000
ENDCHAR
STARTCHAR BrokenVertMark
ENCODING 166
SWIDTH 333 0
DWIDTH 6 0
BBX 2 23 2 -5
BITMAP
0000
0000
0000
C0
C0
C0
C0
C0
C0
C0
00
00
C0
C0
C0
C0
C0
C0
C0
0000
0000
0000
0000
ENDCHAR
STARTCHAR SectionMark
ENCODING 167
SWIDTH 500 0
DWIDTH 9 0
BBX 7 23 1 -5
BITMAP
0000
0000
0000
0000
7c
c6
c6
e0
70
78
dc
ce
e6
76
3c
1c
0e
c6
c6
7c
0000
0000
0000
ENDCHAR
STARTCHAR diaeresisAccnt
ENCODING 168
SWIDTH 611 0
DWIDTH 11 0
BBX 7 23 2 -5
BITMAP
0000
0000
0000
0000
C6
C6
0000
0000
0000
0000
0000
0000
0000
0000
0000
0000
0000
0000
0000
0000
0000
0000
0000
ENDCHAR
STARTCHAR CopyrightSign
ENCODING 169
SWIDTH 611 0
DWIDTH 11 0
BBX 9 23 1 -5
BITMAP
0000
0000
0000
0000
0000
0000
3e
41
9e80
b280
b080
b280
9c80
41
3e
0000
0000
0000
0000
0000
0000
0000
0000
ENDCHAR
STARTCHAR FemaleOrdinal
ENCODING 170
SWIDTH 500 0
DWIDTH 9 0
BBX 7 23 1 -5
BITMAP
0000
0000
0000
3c
66
06
7e
C6
Ce
76
00
fe
00
00
0000
0000
0000
0000
0000
0000
0000
0000
0000
ENDCHAR
STARTCHAR DblOpenAnglQut
ENCODING 171
SWIDTH 611 0
DWIDTH 11 0
BBX 9 23 1 -5
BITMAP
0000
0000
0000
0000
0000
0000
0000
3180
6300
6300
e700
e700
6300
6300
3180
0000
0000
0000
0000
0000
0000
0000
0000
ENDCHAR
STARTCHAR NotSign
ENCODING 172
SWIDTH 888 0
DWIDTH 16 0
BBX 12 23 2 -5
BITMAP
0000
0000
0000
0000
0000
0000
0000
0000
0000
0000
FFF0
FFF0
0030
0030
0030
0030
0000
0000
0000
0000
0000
0000
0000
ENDCHAR
STARTCHAR SoftHyphen
ENCODING 173
SWIDTH 888 0
DWIDTH 16 0
BBX 12 23 2 -5
BITMAP
0000
0000
0000
0000
0000
0000
0000
0000
0000
0000
FFF0
FFF0
0000
0000
0000
0000
0000
0000
0000
0000
0000
0000
0000
ENDCHAR
STARTCHAR RegisTradeMark
ENCODING 174
SWIDTH 611 0
DWIDTH 11 0
BBX 9 23 1 -5
BITMAP
0000
0000
0000
0000
0000
0000
3e
41
bc80
a680
bc80
ac80
a680
41
3e
0000
0000
0000
0000
0000
0000
0000
0000
ENDCHAR
STARTCHAR macronAccent
ENCODING 175
SWIDTH 666 0
DWIDTH 12 0
BBX 8 23 2 -5
BITMAP
0000
0000
0000
0000
fF00
fF00
0000
0000
0000
0000
0000
0000
0000
0000
0000
0000
0000
0000
0000
0000
0000
0000
0000
ENDCHAR
STARTCHAR DegreeSign
ENCODING 176
SWIDTH 444 0
DWIDTH 8 0
BBX 6 23 1 -5
BITMAP
0000
0000
0000
0000
78
CC
CC
CC
CC
78
0000
0000
0000
0000
0000
0000
0000
0000
0000
0000
0000
0000
0000
ENDCHAR
STARTCHAR PlusOverMinus
ENCODING 177
SWIDTH 777 0
DWIDTH 14 0
BBX 10 23 2 -5
BITMAP
0000
0000
0000
0000
0c00
0c00
0c00
ffc0
ffc0
0c00
0c00
0c00
0000
ffc0
ffc0
0000
0000
0000
0000
0000
0000
0000
0000
ENDCHAR
STARTCHAR SupNumberTwo
ENCODING 178
SWIDTH 444 0
DWIDTH 8 0
BBX 6 23 1 -5
BITMAP
000000
000000
000000
780000
cc0000
cc0000
0c0000
180000
300000
600000
c00000
fc0000
0000
0000
0000
0000
0000
0000
0000
0000
0000
000000
000000
ENDCHAR
STARTCHAR SupNumberThree
ENCODING 179
SWIDTH 444 0
DWIDTH 8 0
BBX 6 23 1 -5
BITMAP
0000
0000
0000
780000
CC0000
CC0000
0C0000
380000
0C0000
CC0000
CC0000
780000
000000
000000
000000
000000
000000
0000
0000
0000
0000
0000
0000
ENDCHAR
STARTCHAR acuteAccent
ENCODING 180
SWIDTH 500 0
DWIDTH 9 0
BBX 5 23 2 -5
BITMAP
0000
0000
0000
0000
38
70
C0
0000
0000
0000
0000
0000
0000
0000
0000
0000
0000
0000
0000
0000
0000
0000
0000
ENDCHAR
STARTCHAR muGreek
ENCODING 181
SWIDTH 777 0
DWIDTH 14 0
BBX 13 23 0 -5
BITMAP
0000
0000
0000
0000
0000
0000
0000
0000
0000
1830
1830
1830
3060
3060
3060
30e0
7df8
6F38
6000
C000
C000
C000
0000
ENDCHAR
STARTCHAR ParagraphSign
ENCODING 182
SWIDTH 611 0
DWIDTH 11 0
BBX 10 23 1 -5
BITMAP
0000
0000
0000
0000
3fc0
7c80
fc80
fc80
fc80
fc80
7c80
3c80
0480
0480
0480
0480
0480
0480
0480
0000
0000
0000
0000
ENDCHAR
STARTCHAR middleDot
ENCODING 183
SWIDTH 333 0
DWIDTH 6 0
BBX 2 23 2 -5
BITMAP
0000
0000
0000
0000
0000
0000
0000
0000
0000
0000
C0
C0
0000
0000
0000
0000
0000
0000
0000
0000
0000
0000
0000
ENDCHAR
STARTCHAR cedilla
ENCODING 184
SWIDTH 666 0
DWIDTH 12 0
BBX 6 23 3 -5
BITMAP
0000
0000
0000
0000
0000
0000
0000
0000
0000
0000
0000
0000
0000
0000
0000
0000
0000
0000
1000
1800
cc00
7800
0000
ENDCHAR
STARTCHAR SupNumberOne
ENCODING 185
SWIDTH 388 0
DWIDTH 7 0
BBX 4 23 2 -5
BITMAP
0000
0000
0000
300000
700000
f00000
300000
300000
300000
300000
300000
300000
000000
000000
000000
000000
000000
0000
0000
0000
0000
0000
0000
ENDCHAR
STARTCHAR MaleOrdinal
ENCODING 186
SWIDTH 500 0
DWIDTH 9 0
BBX 8 23 1 -5
BITMAP
0000
0000
0000
7c
c6
c6
c6
c6
c6
7c
00
ff
00
00
0000
0000
0000
0000
0000
0000
0000
0000
0000
ENDCHAR
STARTCHAR DblClosAnglQut
ENCODING 187
SWIDTH 611 0
DWIDTH 11 0
BBX 9 23 1 -5
BITMAP
0000
0000
0000
0000
0000
0000
0000
c600
6300
6300
7380
7380
6300
6300
c600
0000
0000
0000
0000
0000
0000
0000
0000
ENDCHAR
STARTCHAR FracOneFourth
ENCODING 188
SWIDTH 1055 0
DWIDTH 19 0
BBX 17 23 1 -5
BITMAP
0000
0000
0000
0000
303000
703000
f06000
306000
30C000
30C300
318700
318F00
330B00
031B00
063300
063F80
0C0300
0C0300
0000
0000
0000
0000
0000
ENDCHAR
STARTCHAR FracOneHalf
ENCODING 189
SWIDTH 1055 0
DWIDTH 19 0
BBX 17 23 1 -5
BITMAP
0000
0000
0000
0000
303000
703000
f06000
306000
30C000
30CF00
319980
319980
330180
030300
060600
060C00
0C1800
0C1F80
0000
0000
0000
0000
0000
ENDCHAR
STARTCHAR FracThreeFour
ENCODING 190
SWIDTH 1055 0
DWIDTH 19 0
BBX 17 23 1 -5
BITMAP
0000
0000
0000
0000
781800
CC1800
CC3000
0C3000
386000
0C6300
CCC700
CCCF00
798B00
019B00
033300
033F80
060300
060300
0000
0000
0000
0000
0000
ENDCHAR
STARTCHAR InvertQuestion
ENCODING 191
SWIDTH 500 0
DWIDTH 9 0
BBX 7 23 1 -5
BITMAP
0000
0000
0000
0000
18
18
18
00
00
18
18
18
38
70
E0
C0
C0
C6
C6
7C
0000
0000
0000
ENDCHAR
STARTCHAR Agrave
ENCODING 192
SWIDTH 777 0
DWIDTH 14 0
BBX 12 23 1 -5
BITMAP
3800
1c00
0600
0000
0600
0600
0F00
0F00
1980
1980
1980
30C0
30C0
7FE0
6060
6060
C030
C030
0000
0000
0000
0000
0000
ENDCHAR
STARTCHAR Aacute
ENCODING 193
SWIDTH 777 0
DWIDTH 14 0
BBX 12 23 1 -5
BITMAP
01c0
0380
0600
0000
0600
0600
0F00
0F00
1980
1980
1980
30C0
30C0
7FE0
6060
6060
C030
C030
0000
0000
0000
0000
0000
ENDCHAR
STARTCHAR Acircumflex
ENCODING 194
SWIDTH 777 0
DWIDTH 14 0
BBX 12 23 1 -5
BITMAP
0600
0F00
1980
0000
0600
0600
0F00
0F00
1980
1980
1980
30C0
30C0
7FE0
6060
6060
C030
C030
0000
0000
0000
0000
0000
ENDCHAR
STARTCHAR Atilde
ENCODING 195
SWIDTH 777 0
DWIDTH 14 0
BBX 12 23 1 -5
BITMAP
1C40
3fC0
2380
0000
0600
0600
0F00
0F00
1980
1980
1980
30C0
30C0
7FE0
6060
6060
C030
C030
0000
0000
0000
0000
0000
ENDCHAR
STARTCHAR Adiaeresis
ENCODING 196
SWIDTH 777 0
DWIDTH 14 0
BBX 12 23 1 -5
BITMAP
1980
1980
0000
0000
0600
0600
0F00
0F00
1980
1980
1980
30C0
30C0
7FE0
6060
6060
C030
C030
0000
0000
0000
0000
0000
ENDCHAR
STARTCHAR Abolle
ENCODING 197
SWIDTH 777 0
DWIDTH 14 0
BBX 12 23 1 -5
BITMAP
0F00
1980
1980
0F00
0600
0600
0F00
0F00
1980
1980
1980
30C0
30C0
7FE0
6060
6060
C030
C030
0000
0000
0000
0000
0000
ENDCHAR
STARTCHAR AEdiphthong
ENCODING 198
SWIDTH 1111 0
DWIDTH 20 0
BBX 18 23 1 -5
BITMAP
0000
0000
0000
0000
03FFc0
03E000
066000
066000
0C6000
0C6000
187Fc0
186000
306000
3FE000
606000
606000
C06000
C07Fc0
0000
0000
0000
0000
0000
ENDCHAR
STARTCHAR Ccedilla
ENCODING 199
SWIDTH 777 0
DWIDTH 14 0
BBX 12 23 1 -5
BITMAP
0000
0000
0000
0000
0F80
38E0
6030
6030
C000
C000
C000
C000
C000
C000
6030
6030
38E0
0F80
0200
0300
1980
0F00
0000
ENDCHAR
STARTCHAR Egrave
ENCODING 200
SWIDTH 611 0
DWIDTH 11 0
BBX 9 23 1 -5
BITMAP
7000
3800
0c00
0000
ff80
c000
c000
c000
c000
c000
ff80
c000
c000
c000
c000
c000
c000
ff80
0000
0000
0000
0000
0000
ENDCHAR
STARTCHAR Eacute
ENCODING 201
SWIDTH 611 0
DWIDTH 11 0
BBX 9 23 1 -5
BITMAP
0e00
1c00
3000
0000
FF80
C000
C000
C000
C000
C000
FF80
C000
C000
C000
C000
C000
C000
FF80
0000
0000
0000
0000
0000
ENDCHAR
STARTCHAR Ecircumflex
ENCODING 202
SWIDTH 611 0
DWIDTH 11 0
BBX 9 23 1 -5
BITMAP
1800
3c00
6600
0000
FF80
C000
C000
C000
C000
C000
FF80
C000
C000
C000
C000
C000
C000
FF80
0000
0000
0000
0000
0000
ENDCHAR
STARTCHAR Ediaeresis
ENCODING 203
SWIDTH 611 0
DWIDTH 11 0
BBX 9 23 1 -5
BITMAP
6600
6600
0000
0000
ff80
c000
c000
c000
c000
c000
ff80
c000
c000
c000
c000
c000
c000
ff80
0000
0000
0000
0000
0000
ENDCHAR
STARTCHAR Igrave
ENCODING 204
SWIDTH 333 0
DWIDTH 6 0
BBX 4 23 0 -5
BITMAP
c0
e0
30
00
30
30
30
30
30
30
30
30
30
30
30
30
30
30
0000
0000
0000
0000
0000
ENDCHAR
STARTCHAR Iacute
ENCODING 205
SWIDTH 333 0
DWIDTH 6 0
BBX 4 23 2 -5
BITMAP
30
70
c0
00
c0
c0
c0
c0
c0
c0
c0
c0
c0
c0
c0
c0
c0
c0
0000
0000
0000
0000
0000
ENDCHAR
STARTCHAR Icircumflex
ENCODING 206
SWIDTH 333 0
DWIDTH 6 0
BBX 6 23 0 -5
BITMAP
30
78
CC
00
30
30
30
30
30
30
30
30
30
30
30
30
30
30
0000
0000
0000
0000
0000
ENDCHAR
STARTCHAR Idiaeresis
ENCODING 207
SWIDTH 333 0
DWIDTH 6 0
BBX 6 23 0 -5
BITMAP
CC
CC
00
00
30
30
30
30
30
30
30
30
30
30
30
30
30
30
0000
0000
0000
0000
0000
ENDCHAR
STARTCHAR Eth
ENCODING 208
SWIDTH 722 0
DWIDTH 13 0
BBX 12 23 0 -5
BITMAP
0000
0000
0000
0000
7F00
61C0
6060
6060
6030
6030
FC30
6030
6030
6030
6060
6060
61C0
7F00
0000
0000
0000
0000
0000
ENDCHAR
STARTCHAR Ntilde
ENCODING 209
SWIDTH 722 0
DWIDTH 13 0
BBX 11 23 1 -5
BITMAP
3840
6eC0
4380
0000
C060
E060
E060
F060
D860
D860
CC60
C660
C660
C360
C1E0
C1E0
C0E0
C060
0000
0000
0000
0000
0000
ENDCHAR
STARTCHAR Ograve
ENCODING 210
SWIDTH 833 0
DWIDTH 15 0
BBX 13 23 1 -5
BITMAP
3800
1c00
0600
0000
0F80
38E0
6030
6030
C018
C018
C018
C018
C018
C018
6030
6030
38E0
0F80
0000
0000
0000
0000
0000
ENDCHAR
STARTCHAR Oacute
ENCODING 211
SWIDTH 833 0
DWIDTH 15 0
BBX 13 23 1 -5
BITMAP
00e0
01c0
0300
0000
0F80
38E0
6030
6030
C018
C018
C018
C018
C018
C018
6030
6030
38E0
0F80
0000
0000
0000
0000
0000
ENDCHAR
STARTCHAR Ocircumflex
ENCODING 212
SWIDTH 833 0
DWIDTH 15 0
BBX 13 23 1 -5
BITMAP
0600
0f00
1980
0000
0F80
38E0
6030
6030
C018
C018
C018
C018
C018
C018
6030
6030
38E0
0F80
0000
0000
0000
0000
0000
ENDCHAR
STARTCHAR Otilde
ENCODING 213
SWIDTH 833 0
DWIDTH 15 0
BBX 13 23 1 -5
BITMAP
1E10
37b0
21e0
0000
0F80
38E0
6030
6030
C018
C018
C018
C018
C018
C018
6030
6030
38E0
0F80
0000
0000
0000
0000
0000
ENDCHAR
STARTCHAR Odiaeresis
ENCODING 214
SWIDTH 833 0
DWIDTH 15 0
BBX 13 23 1 -5
BITMAP
18c0
18c0
0000
0000
0F80
38E0
6030
6030
C018
C018
C018
C018
C018
C018
6030
6030
38E0
0F80
0000
0000
0000
0000
0000
ENDCHAR
STARTCHAR MultiplySign
ENCODING 215
SWIDTH 888 0
DWIDTH 16 0
BBX 10 23 3 -5
BITMAP
0000
0000
0000
0000
0000
0000
c0c0
e1c0
7380
3f00
1e00
1e00
3f00
7380
e1c0
c0c0
0000
0000
0000
0000
0000
0000
0000
ENDCHAR
STARTCHAR Ooblique
ENCODING 216
SWIDTH 833 0
DWIDTH 15 0
BBX 13 23 1 -5
BITMAP
0000
0000
0000
0030
0FB0
38E0
6070
60F0
C198
C118
C318
C618
C418
CC18
7830
7030
38E0
6F80
6000
0000
0000
0000
0000
ENDCHAR
STARTCHAR Ugrave
ENCODING 217
SWIDTH 722 0
DWIDTH 13 0
BBX 11 23 1 -5
BITMAP
7000
3800
0c00
0000
C060
C060
C060
C060
C060
C060
C060
C060
C060
C060
C060
60C0
71C0
1F00
0000
0000
0000
0000
0000
ENDCHAR
STARTCHAR Uacute
ENCODING 218
SWIDTH 722 0
DWIDTH 13 0
BBX 11 23 1 -5
BITMAP
0380
0700
0C00
0000
C060
C060
C060
C060
C060
C060
C060
C060
C060
C060
C060
60C0
71C0
1F00
0000
0000
0000
0000
0000
ENDCHAR
STARTCHAR Ucircumflex
ENCODING 219
SWIDTH 722 0
DWIDTH 13 0
BBX 11 23 1 -5
BITMAP
0600
0f00
1980
0000
C060
C060
C060
C060
C060
C060
C060
C060
C060
C060
C060
60C0
71C0
1F00
0000
0000
0000
0000
0000
ENDCHAR
STARTCHAR Udiaeresis
ENCODING 220
SWIDTH 722 0
DWIDTH 13 0
BBX 11 23 1 -5
BITMAP
3180
3180
0000
0000
C060
C060
C060
C060
C060
C060
C060
C060
C060
C060
C060
60C0
71C0
1F00
0000
0000
0000
0000
0000
ENDCHAR
STARTCHAR Yacute
ENCODING 221
SWIDTH 777 0
DWIDTH 14 0
BBX 12 23 1 -5
BITMAP
01C0
0380
0600
0000
C030
E070
6060
30C0
39C0
1980
0F00
0F00
0600
0600
0600
0600
0600
0600
0000
0000
0000
0000
0000
ENDCHAR
STARTCHAR Thorn
ENCODING 222
SWIDTH 611 0
DWIDTH 11 0
BBX 9 23 1 -5
BITMAP
0000
0000
0000
0000
C000
C000
Fe00
C300
C180
C180
C180
C180
C300
Fe00
C000
C000
C000
C000
0000
0000
0000
0000
0000
ENDCHAR
STARTCHAR EsZetLigature
ENCODING 223
SWIDTH 666 0
DWIDTH 12 0
BBX 10 23 1 -5
BITMAP
0000
0000
0000
0000
3C00
6600
C300
C300
C600
CC00
CE00
C300
C180
C0C0
C0C0
D8C0
D980
CF00
c000
c000
0000
0000
0000
ENDCHAR
STARTCHAR agrave
ENCODING 224
SWIDTH 611 0
DWIDTH 11 0
BBX 9 23 1 -5
BITMAP
0000
0000
0000
0000
0000
7000
3800
0c00
0000
3F00
6180
6180
0180
7F80
C180
C180
C380
7D80
0000
0000
0000
0000
0000
ENDCHAR
STARTCHAR aacute
ENCODING 225
SWIDTH 611 0
DWIDTH 11 0
BBX 9 23 1 -5
BITMAP
0000
0000
0000
0000
0000
0380
0700
0c00
0000
3F00
6180
6180
0180
7F80
C180
C180
C380
7D80
0000
0000
0000
0000
0000
ENDCHAR
STARTCHAR acircumflex
ENCODING 226
SWIDTH 611 0
DWIDTH 11 0
BBX 9 23 1 -5
BITMAP
0000
0000
0000
0000
0000
0C00
1E00
3300
0000
3F00
6180
6180
0180
7F80
C180
C180
C380
7D80
0000
0000
0000
0000
0000
ENDCHAR
STARTCHAR atilde
ENCODING 227
SWIDTH 611 0
DWIDTH 11 0
BBX 9 23 1 -5
BITMAP
0000
0000
0000
0000
0000
3880
7f80
4700
0000
3F00
6180
6180
0180
7F80
C180
C180
C380
7D80
0000
0000
0000
0000
0000
ENDCHAR
STARTCHAR adiaeresis
ENCODING 228
SWIDTH 611 0
DWIDTH 11 0
BBX 9 23 1 -5
BITMAP
0000
0000
0000
0000
0000
3300
3300
0000
0000
3F00
6180
6180
0180
7F80
C180
C180
C380
7D80
0000
0000
0000
0000
0000
ENDCHAR
STARTCHAR abolle
ENCODING 229
SWIDTH 611 0
DWIDTH 11 0
BBX 9 23 1 -5
BITMAP
0000
0000
0000
1E00
3300
3300
3300
1E00
0000
3F00
6180
6180
0180
7F80
C180
C180
C380
7D80
0000
0000
0000
0000
0000
ENDCHAR
STARTCHAR aedihthong
ENCODING 230
SWIDTH 1000 0
DWIDTH 18 0
BBX 16 23 1 -5
BITMAP
0000
0000
0000
0000
0000
0000
0000
0000
0000
3E7C
63C6
6183
0183
7FFF
C180
C180
C3C3
7E7E
0000
0000
0000
0000
0000
ENDCHAR
STARTCHAR ccedilla
ENCODING 231
SWIDTH 555 0
DWIDTH 10 0
BBX 8 23 1 -5
BITMAP
0000
0000
0000
0000
0000
0000
0000
0000
0000
3E
63
C1
C0
C0
C0
C1
63
3E
08
0C
66
3C
0000
ENDCHAR
STARTCHAR egrave
ENCODING 232
SWIDTH 611 0
DWIDTH 11 0
BBX 9 23 1 -5
BITMAP
0000
0000
0000
0000
0000
e000
7000
1800
0000
3E00
6300
C180
C180
FF80
C000
C000
6180
3F00
0000
0000
0000
0000
0000
ENDCHAR
STARTCHAR eacute
ENCODING 233
SWIDTH 611 0
DWIDTH 11 0
BBX 9 23 1 -5
BITMAP
0000
0000
0000
0000
0000
0380
0700
0c00
0000
3E00
6300
C180
C180
FF80
C000
C000
6180
3F00
0000
0000
0000
0000
0000
ENDCHAR
STARTCHAR ecircumflex
ENCODING 234
SWIDTH 611 0
DWIDTH 11 0
BBX 9 23 1 -5
BITMAP
0000
0000
0000
0000
0000
0c00
1e00
3300
0000
3E00
6300
C180
C180
FF80
C000
C000
6180
3F00
0000
0000
0000
0000
0000
ENDCHAR
STARTCHAR ediaeresis
ENCODING 235
SWIDTH 611 0
DWIDTH 11 0
BBX 9 23 1 -5
BITMAP
0000
0000
0000
0000
0000
6300
6300
0000
0000
3E00
6300
C180
C180
FF80
C000
C000
6180
3F00
0000
0000
0000
0000
0000
ENDCHAR
STARTCHAR igrave
ENCODING 236
SWIDTH 333 0
DWIDTH 6 0
BBX 4 23 0 -5
BITMAP
0000
0000
0000
0000
0000
c0
e0
30
00
30
30
30
30
30
30
30
30
30
0000
0000
0000
0000
0000
ENDCHAR
STARTCHAR iacute
ENCODING 237
SWIDTH 333 0
DWIDTH 6 0
BBX 4 23 2 -5
BITMAP
0000
0000
0000
0000
0000
30
70
c0
00
c0
c0
c0
c0
c0
c0
c0
c0
c0
0000
0000
0000
0000
0000
ENDCHAR
STARTCHAR icircumflex
ENCODING 238
SWIDTH 333 0
DWIDTH 6 0
BBX 6 23 0 -5
BITMAP
0000
0000
0000
0000
0000
30
78
CC
00
30
30
30
30
30
30
30
30
30
0000
0000
0000
0000
0000
ENDCHAR
STARTCHAR idiaeresis
ENCODING 239
SWIDTH 333 0
DWIDTH 6 0
BBX 6 23 0 -5
BITMAP
0000
0000
0000
0000
0000
CC
CC
00
00
30
30
30
30
30
30
30
30
30
0000
0000
0000
0000
0000
ENDCHAR
STARTCHAR ethIcelandic
ENCODING 240
SWIDTH 611 0
DWIDTH 11 0
BBX 9 23 1 -5
BITMAP
0000
0000
0000
0000
7700
1C00
7600
0300
0100
3F80
6380
C180
C180
C180
C180
C180
6300
3E00
0000
0000
0000
0000
0000
ENDCHAR
STARTCHAR ntilde
ENCODING 241
SWIDTH 555 0
DWIDTH 10 0
BBX 8 23 1 -5
BITMAP
0000
0000
0000
0000
0000
71
bd
8E
00
DE
E3
C3
C3
C3
C3
C3
C3
C3
0000
0000
0000
0000
0000
ENDCHAR
STARTCHAR ograve
ENCODING 242
SWIDTH 611 0
DWIDTH 11 0
BBX 9 23 1 -5
BITMAP
0000
0000
0000
0000
0000
e000
7000
1800
0000
3E00
6300
C180
C180
C180
C180
C180
6300
3E00
0000
0000
0000
0000
0000
ENDCHAR
STARTCHAR oacute
ENCODING 243
SWIDTH 611 0
DWIDTH 11 0
BBX 9 23 1 -5
BITMAP
0000
0000
0000
0000
0000
0380
0700
0c00
0000
3E00
6300
C180
C180
C180
C180
C180
6300
3E00
0000
0000
0000
0000
0000
ENDCHAR
STARTCHAR ocircumflex
ENCODING 244
SWIDTH 611 0
DWIDTH 11 0
BBX 9 23 1 -5
BITMAP
0000
0000
0000
0000
0000
0C00
1e00
3300
0000
3E00
6300
C180
C180
C180
C180
C180
6300
3E00
0000
0000
0000
0000
0000
ENDCHAR
STARTCHAR otilde
ENCODING 245
SWIDTH 611 0
DWIDTH 11 0
BBX 9 23 1 -5
BITMAP
0000
0000
0000
0000
0000
3880
7f80
4700
0000
3E00
6300
C180
C180
C180
C180
C180
6300
3E00
0000
0000
0000
0000
0000
ENDCHAR
STARTCHAR odiaeresis
ENCODING 246
SWIDTH 611 0
DWIDTH 11 0
BBX 9 23 1 -5
BITMAP
0000
0000
0000
0000
0000
6300
6300
0000
0000
3E00
6300
C180
C180
C180
C180
C180
6300
3E00
0000
0000
0000
0000
0000
ENDCHAR
STARTCHAR DivideSign
ENCODING 247
SWIDTH 888 0
DWIDTH 16 0
BBX 12 23 2 -5
BITMAP
0000
0000
0000
0000
0000
0000
0600
0600
0000
0000
FFF0
FFF0
0000
0000
0600
0600
0000
0000
0000
0000
0000
0000
0000
ENDCHAR
STARTCHAR ooblique
ENCODING 248
SWIDTH 611 0
DWIDTH 11 0
BBX 9 23 1 -5
BITMAP
0000
0000
0000
0000
0000
0000
0000
0100
0300
3E00
6700
C580
CD80
C980
D980
D180
7300
3E00
6000
4000
0000
0000
0000
ENDCHAR
STARTCHAR ugrave
ENCODING 249
SWIDTH 555 0
DWIDTH 10 0
BBX 8 23 1 -5
BITMAP
0000
0000
0000
0000
0000
E0
70
18
00
C3
C3
C3
C3
C3
C3
C3
C7
7B
0000
0000
0000
0000
0000
ENDCHAR
STARTCHAR uacute
ENCODING 250
SWIDTH 555 0
DWIDTH 10 0
BBX 8 23 1 -5
BITMAP
0000
0000
0000
0000
0000
07
0e
18
00
C3
C3
C3
C3
C3
C3
C3
C7
7B
0000
0000
0000
0000
0000
ENDCHAR
STARTCHAR ucircumflex
ENCODING 251
SWIDTH 555 0
DWIDTH 10 0
BBX 8 23 1 -5
BITMAP
0000
0000
0000
0000
0000
18
3C
66
00
C3
C3
C3
C3
C3
C3
C3
C7
7B
0000
0000
0000
0000
0000
ENDCHAR
STARTCHAR udiaeresis
ENCODING 252
SWIDTH 555 0
DWIDTH 10 0
BBX 8 23 1 -5
BITMAP
0000
0000
0000
0000
0000
66
66
00
00
C3
C3
C3
C3
C3
C3
C3
C7
7B
0000
0000
0000
0000
0000
ENDCHAR
STARTCHAR yacute
ENCODING 253
SWIDTH 611 0
DWIDTH 11 0
BBX 9 23 1 -5
BITMAP
0000
0000
0000
0000
0380
0700
0c00
0000
0000
C180
C180
6300
6300
3600
3600
1C00
1C00
1800
1800
3000
7000
6000
0000
ENDCHAR
STARTCHAR thorn
ENCODING 254
SWIDTH 611 0
DWIDTH 11 0
BBX 9 23 1 -5
BITMAP
0000
0000
0000
0000
C000
C000
C000
C000
C000
DE00
E300
C180
C180
C180
C180
C180
E300
DE00
C000
C000
C000
C000
0000
ENDCHAR
STARTCHAR ydiaeresis
ENCODING 255
SWIDTH 611 0
DWIDTH 11 0
BBX 9 23 1 -5
BITMAP
0000
0000
0000
0000
0000
6600
6600
0000
0000
C180
C180
6300
6300
3600
3600
1C00
1C00
1800
1800
3000
7000
6000
0000
ENDCHAR
ENDFONT
